<svg xmlns="http://www.w3.org/2000/svg" width="26.513" height="22.094" viewBox="0 0 26.513 22.094"><defs><style>.a{fill:#e33d6f;fill-rule:evenodd;}</style></defs><path class="a" d="M20.309,24.85a1.314,1.314,0,0,0,1.223.16,1.282,1.282,0,0,0,.8-.928c.96-4.512,3.289-15.931,4.162-20.035a.863.863,0,0,0-.287-.837.885.885,0,0,0-.88-.155C20.694,4.77,6.429,10.122.6,12.279a.908.908,0,0,0,.056,1.727c2.615.782,6.047,1.87,6.047,1.87s1.6,4.844,2.44,7.308a.968.968,0,0,0,.666.636.957.957,0,0,0,.9-.229l3.42-3.229s3.946,2.893,6.184,4.487ZM8.146,15.264,10,21.382l.412-3.874L21.664,7.36a.307.307,0,0,0,.036-.416.314.314,0,0,0-.415-.071L8.146,15.264Z" transform="translate(0 -3)"/></svg>