<svg xmlns="http://www.w3.org/2000/svg" width="32.264" height="26.555" viewBox="0 0 32.264 26.555"><defs><style>.a{fill:#e33d6f;}</style></defs><path class="a" d="M774.259,208.471a13.316,13.316,0,0,1-3.263.93c.525-.089,1.295-1.038,1.6-1.422A5.988,5.988,0,0,0,773.684,206c.029-.056.05-.127-.007-.17a.186.186,0,0,0-.173.014,16.619,16.619,0,0,1-3.869,1.48.258.258,0,0,1-.266-.071,3.146,3.146,0,0,0-.338-.345,6.859,6.859,0,0,0-1.874-1.149,6.534,6.534,0,0,0-2.875-.462,6.87,6.87,0,0,0-2.727.77,7.034,7.034,0,0,0-2.2,1.8,6.766,6.766,0,0,0-1.313,2.631,7.13,7.13,0,0,0-.07,2.777c.021.156.007.176-.133.156-5.314-.791-9.717-2.692-13.293-6.766-.155-.177-.239-.177-.366.014-1.565,2.345-.805,6.112,1.149,7.964.26.247.528.494.817.719a6.772,6.772,0,0,1-2.565-.719c-.155-.1-.234-.042-.247.134a4.075,4.075,0,0,0,.042.761,6.815,6.815,0,0,0,4.2,5.434,4,4,0,0,0,.852.261,7.6,7.6,0,0,1-2.516.077c-.183-.035-.253.057-.183.233a7.077,7.077,0,0,0,5.285,4.427c.24.041.48.041.72.1-.014.023-.029.023-.043.043-.593.905-2.651,1.578-3.609,1.913a12.923,12.923,0,0,1-5.482.7c-.295-.044-.357-.04-.437,0s-.01.121.085.2c.374.247.754.466,1.142.677a18.1,18.1,0,0,0,3.665,1.467c6.586,1.819,14,.482,18.95-4.431,3.883-3.858,5.245-9.18,5.245-14.507,0-.209.246-.323.392-.434a12.8,12.8,0,0,0,2.579-2.682.816.816,0,0,0,.171-.513v-.028C774.392,208.385,774.39,208.411,774.259,208.471Z" transform="translate(-742.129 -205.288)"/></svg>