<svg xmlns="http://www.w3.org/2000/svg" width="28.707" height="32.492" viewBox="0 0 28.707 32.492"><defs><style>.a,.b{fill:#fff;}.b{fill-rule:evenodd;}</style></defs><g transform="translate(8 -9)"><g transform="translate(-8 9)"><path class="a" d="M6.022,3.919c-.345,0-.364,0-.191-.1a6.184,6.184,0,0,1,1.589.134,6.816,6.816,0,0,1,3.523,2.336l.306.345h.44a9.688,9.688,0,0,1,5.457.689,7.046,7.046,0,0,1,1.245.689,3.485,3.485,0,0,1,.115.479,2.91,2.91,0,0,1-.191,1.915.5.5,0,0,0,0,.536.574.574,0,0,0,.46.287c.421,0,.842-.651,1.053-1.532V9.337l.153.172a6.606,6.606,0,0,1,1.666,3.217v.268l-.077-.383a3.236,3.236,0,0,0-.842-.785,5.246,5.246,0,0,0-2.815-.574,11.986,11.986,0,0,1-3.121-.479c-1.417-.44-2.125-1.034-3.829-3.2A15.413,15.413,0,0,0,9.3,5.661,5.744,5.744,0,0,0,6.022,3.919Z" transform="translate(5.236 3.491)"/><path class="a" d="M13.618,5.823a3.829,3.829,0,0,1,.306-1.436l.153-.287v.249a3.293,3.293,0,0,0,0,1.474c.134.766.172.862,1,1.685.383.383.823.881,1,1.072l.287.364-.287-.268a10.607,10.607,0,0,0-1.532-1.091h-.211c-.077,0-.1.172-.1.651a3.714,3.714,0,0,1-.364,1.723c-.134.249-.153.191,0,0a2.547,2.547,0,0,0,0-1.034c0-1.455-.172-1.915-1.206-2.412L11.7,6.034l-.383-.211a7.2,7.2,0,0,1,1.436.421c.594.23.689.249.766.23S13.6,6.206,13.618,5.823Z" transform="translate(10.354 3.75)"/><path class="a" d="M6.765,8.183A5.744,5.744,0,0,1,5.693,4.565V4.22h.153a3.561,3.561,0,0,1,1.091.4c.689.4,1,.957,1.283,2.336a3.026,3.026,0,0,0,.268,1.015,5.744,5.744,0,0,0,.67,1.206c.191.268,0,.4-.345.383A3.58,3.58,0,0,1,6.765,8.183Z" transform="translate(5.201 3.86)"/><path class="a" d="M14.256,12.5C10.867,11.138,9.68,9.989,9.68,8.017V7.5l.287.211A6.95,6.95,0,0,0,13.548,8.8a13.4,13.4,0,0,1,2.623.536,4.94,4.94,0,0,1,3.638,3.829,6.491,6.491,0,0,1-.1,2.106,3.829,3.829,0,0,1-.555,1.206.67.67,0,0,1,0-.23,2.776,2.776,0,0,0-1-1.915A13.575,13.575,0,0,0,14.256,12.5Z" transform="translate(8.854 6.86)"/><path class="a" d="M14.314,10.847a3.581,3.581,0,0,0-.172-.689V9.89l.153.191a3.1,3.1,0,0,1,.536.976,1.915,1.915,0,0,1,.134.938,1.915,1.915,0,0,1-.134.9,2.91,2.91,0,0,1-.708,1.13,4.1,4.1,0,0,1-2.566,1.11h-1.3a10.492,10.492,0,0,0-2.891.479L7,15.845a3.829,3.829,0,0,1,.919-.536,10.071,10.071,0,0,1,2.566-.689A12.6,12.6,0,0,0,12,14.332a2.91,2.91,0,0,0,2.317-3.485Z" transform="translate(6.402 9.046)"/><path class="a" d="M11.832,13.191a3.925,3.925,0,0,1-.306-2.719c0-.1,0-.172.115-.172a.594.594,0,0,1,.23.115l1.723.957a8.788,8.788,0,0,1,2.719,1.915,4.021,4.021,0,0,1,.9,2.183,6.357,6.357,0,0,1,0,1.915,4.959,4.959,0,0,1-2.47,3.236l-.345.153a.976.976,0,0,1,.153-.364,3.331,3.331,0,0,0,.153-2.6,10.7,10.7,0,0,0-1.474-2.336,17.4,17.4,0,0,1-1.4-2.278Z" transform="translate(10.435 9.421)"/><path class="a" d="M5.155,15.5a9.343,9.343,0,0,1,4.251-2.01,6.491,6.491,0,0,1,2.2,0,3.829,3.829,0,0,1,2.144,1.359,4.729,4.729,0,0,1,.785,2.3l.172,1.015a2.183,2.183,0,0,0,.766,1.321,2.6,2.6,0,0,0,2.355,0h.287a3.829,3.829,0,0,1-.747.479,2.47,2.47,0,0,1-3.312-.976,11.623,11.623,0,0,1-.555-1.11A4.021,4.021,0,0,0,11.9,15.648a2.125,2.125,0,0,0-1.915-.172,1.245,1.245,0,0,0-.44,1.915,1.685,1.685,0,0,0,.976.517,1.034,1.034,0,0,0,1.168-1.034.8.8,0,0,0-.555-.823c-.555-.23-1.149,0-1.13.555a.44.44,0,0,0,.325.46h0c-.5-.1-.613-.689-.23-1.091a1.225,1.225,0,0,1,1.915.4,1.627,1.627,0,0,1,0,1.13,1.608,1.608,0,0,1-1.915.919,2.815,2.815,0,0,1-1.493-1,4.538,4.538,0,0,0-3.446-1.551H4.83Z" transform="translate(4.418 12.248)"/><path class="b" d="M.574.728C4.557,5.476,10.684,12.866,10.99,13.268s.153.651-.268.881a2.815,2.815,0,0,1-.976.287,1.34,1.34,0,0,1-.823-.364c-.153-.153-.823-1.11-2.317-3.408C5.457,8.9,4.48,7.448,4.48,7.429a23.608,23.608,0,0,0,2.01,3.619,29.562,29.562,0,0,1,1.742,3.236c0,.211,0,.325-.345.632a3.676,3.676,0,0,0-.823,2.317A6.912,6.912,0,0,1,5.15,21.061a7.1,7.1,0,0,0-1.072,1.493,3.025,3.025,0,0,0-.345,1.34,4.289,4.289,0,0,0,.23,1.647,5.744,5.744,0,0,0,.823,1.589,3.944,3.944,0,0,1,.632,1.225c0,.134,0,.134.651,0A6.95,6.95,0,0,0,9.363,26.8a1.493,1.493,0,0,0,.517-1.283,1.436,1.436,0,0,0-.115-.708,3.14,3.14,0,0,0-1.206-1.149,2.661,2.661,0,0,1-1.417-1.781,3.217,3.217,0,0,1,.517-2.106,5.744,5.744,0,0,0,.766-2.546,1.52,1.52,0,0,1,.345-1.206,1.3,1.3,0,0,1,.938-.4,3.083,3.083,0,0,0,1.915-.747,1.551,1.551,0,0,0,.594-1.225v-.383L12,13.02C11.162,12.024,0,0,0,0S.249.325.574.728ZM5.744,24.6a.67.67,0,0,0-.23-.919c-.287-.191-.728,0-.728.153a.191.191,0,0,0,.134.172c.153,0,.172.153,0,.345a.3.3,0,0,0,0,.46.479.479,0,0,0,.823-.211Z"/><path class="b" d="M7.125,8.256a1.513,1.513,0,0,0-.919.976,1.436,1.436,0,0,0,0,.919c.191.23.364.306.842.306.938,0,1.742-.4,1.819-.9A1.264,1.264,0,0,0,8.1,8.352,1.666,1.666,0,0,0,7.125,8.256ZM8.216,9.1a.383.383,0,0,0-.172-.574c-.46-.287-1.149,0-1.149.383s.345.46.689.46A.919.919,0,0,0,8.216,9.1Z" transform="translate(5.607 7.521)"/></g></g></svg>